<svg width="136" height="24" viewBox="0 0 136 24" fill="none" xmlns="http://www.w3.org/2000/svg">
<path d="M2 6H0V11H0.01L0 20C0 21.1 0.9 22 2 22H20V20H2V6ZM22 4H14L12 2H6C4.9 2 4.01 2.9 4.01 4L4 16C4 17.1 4.9 18 6 18H22C23.1 18 24 17.1 24 16V6C24 4.9 23.1 4 22 4ZM7 15L11.5 9L15 13.51L17.5 10.5L21 15H7Z" fill="#BB0101"/>
<path d="M43.9453 13.2109C43.8568 14.4349 43.4036 15.3984 42.5859 16.1016C41.7734 16.8047 40.7005 17.1562 39.3672 17.1562C37.9089 17.1562 36.7604 16.6667 35.9219 15.6875C35.0885 14.7031 34.6719 13.3542 34.6719 11.6406V10.9453C34.6719 9.85156 34.8646 8.88802 35.25 8.05469C35.6354 7.22135 36.1849 6.58333 36.8984 6.14062C37.6172 5.69271 38.4505 5.46875 39.3984 5.46875C40.7109 5.46875 41.7682 5.82031 42.5703 6.52344C43.3724 7.22656 43.8359 8.21354 43.9609 9.48438H41.6172C41.5599 8.75 41.3542 8.21875 41 7.89062C40.651 7.55729 40.1172 7.39062 39.3984 7.39062C38.6172 7.39062 38.0312 7.67188 37.6406 8.23438C37.2552 8.79167 37.0573 9.65885 37.0469 10.8359V11.6953C37.0469 12.9245 37.2318 13.8229 37.6016 14.3906C37.9766 14.9583 38.5651 15.2422 39.3672 15.2422C40.0911 15.2422 40.6302 15.0781 40.9844 14.75C41.3438 14.4167 41.5495 13.9036 41.6016 13.2109H43.9453ZM47.5391 9.46875C48.138 8.75 48.8906 8.39062 49.7969 8.39062C51.6302 8.39062 52.5599 9.45573 52.5859 11.5859V17H50.3281V11.6484C50.3281 11.1641 50.224 10.8073 50.0156 10.5781C49.8073 10.3438 49.4609 10.2266 48.9766 10.2266C48.3151 10.2266 47.8359 10.4818 47.5391 10.9922V17H45.2812V5H47.5391V9.46875ZM59.1875 17C59.0833 16.7969 59.0078 16.5443 58.9609 16.2422C58.4141 16.8516 57.7031 17.1562 56.8281 17.1562C56 17.1562 55.3125 16.9167 54.7656 16.4375C54.224 15.9583 53.9531 15.3542 53.9531 14.625C53.9531 13.7292 54.2839 13.0417 54.9453 12.5625C55.612 12.0833 56.5729 11.8411 57.8281 11.8359H58.8672V11.3516C58.8672 10.9609 58.7656 10.6484 58.5625 10.4141C58.3646 10.1797 58.0495 10.0625 57.6172 10.0625C57.237 10.0625 56.9375 10.1536 56.7188 10.3359C56.5052 10.5182 56.3984 10.7682 56.3984 11.0859H54.1406C54.1406 10.5964 54.2917 10.1432 54.5938 9.72656C54.8958 9.3099 55.3229 8.98438 55.875 8.75C56.4271 8.51042 57.0469 8.39062 57.7344 8.39062C58.776 8.39062 59.6016 8.65365 60.2109 9.17969C60.8255 9.70052 61.1328 10.4349 61.1328 11.3828V15.0469C61.138 15.849 61.25 16.4557 61.4688 16.8672V17H59.1875ZM57.3203 15.4297C57.6536 15.4297 57.9609 15.3568 58.2422 15.2109C58.5234 15.0599 58.7318 14.8594 58.8672 14.6094V13.1562H58.0234C56.8932 13.1562 56.2917 13.5469 56.2188 14.3281L56.2109 14.4609C56.2109 14.7422 56.3099 14.974 56.5078 15.1562C56.7057 15.3385 56.9766 15.4297 57.3203 15.4297ZM64.9453 8.54688L65.0156 9.52344C65.6198 8.76823 66.4297 8.39062 67.4453 8.39062C68.3411 8.39062 69.0078 8.65365 69.4453 9.17969C69.8828 9.70573 70.1068 10.4922 70.1172 11.5391V17H67.8594V11.5938C67.8594 11.1146 67.7552 10.7682 67.5469 10.5547C67.3385 10.3359 66.9922 10.2266 66.5078 10.2266C65.8724 10.2266 65.3958 10.4974 65.0781 11.0391V17H62.8203V8.54688H64.9453ZM71.5078 12.7109C71.5078 11.4141 71.8151 10.3698 72.4297 9.57812C73.0495 8.78646 73.8828 8.39062 74.9297 8.39062C75.8568 8.39062 76.5781 8.70833 77.0938 9.34375L77.1875 8.54688H79.2344V16.7188C79.2344 17.4583 79.0651 18.1016 78.7266 18.6484C78.3932 19.1953 77.9219 19.612 77.3125 19.8984C76.7031 20.1849 75.9896 20.3281 75.1719 20.3281C74.5521 20.3281 73.9479 20.2031 73.3594 19.9531C72.7708 19.7083 72.3255 19.3906 72.0234 19L73.0234 17.625C73.5859 18.2552 74.2682 18.5703 75.0703 18.5703C75.6693 18.5703 76.1354 18.4089 76.4688 18.0859C76.8021 17.7682 76.9688 17.3151 76.9688 16.7266V16.2734C76.4479 16.862 75.763 17.1562 74.9141 17.1562C73.8984 17.1562 73.0755 16.7604 72.4453 15.9688C71.8203 15.1719 71.5078 14.1172 71.5078 12.8047V12.7109ZM73.7656 12.875C73.7656 13.6406 73.9193 14.2422 74.2266 14.6797C74.5339 15.112 74.9557 15.3281 75.4922 15.3281C76.1797 15.3281 76.6719 15.0703 76.9688 14.5547V11C76.6667 10.4844 76.1797 10.2266 75.5078 10.2266C74.9661 10.2266 74.5391 10.4479 74.2266 10.8906C73.9193 11.3333 73.7656 11.9948 73.7656 12.875ZM84.8672 17.1562C83.6276 17.1562 82.6172 16.776 81.8359 16.0156C81.0599 15.2552 80.6719 14.2422 80.6719 12.9766V12.7578C80.6719 11.9089 80.8359 11.151 81.1641 10.4844C81.4922 9.8125 81.9557 9.29688 82.5547 8.9375C83.1589 8.57292 83.8464 8.39062 84.6172 8.39062C85.7734 8.39062 86.6823 8.75521 87.3438 9.48438C88.0104 10.2135 88.3438 11.2474 88.3438 12.5859V13.5078H82.9609C83.0339 14.0599 83.2526 14.5026 83.6172 14.8359C83.987 15.1693 84.4531 15.3359 85.0156 15.3359C85.8854 15.3359 86.5651 15.0208 87.0547 14.3906L88.1641 15.6328C87.8255 16.112 87.3672 16.487 86.7891 16.7578C86.2109 17.0234 85.5703 17.1562 84.8672 17.1562ZM84.6094 10.2188C84.1615 10.2188 83.7969 10.3698 83.5156 10.6719C83.2396 10.974 83.0625 11.4062 82.9844 11.9688H86.125V11.7891C86.1146 11.2891 85.9792 10.9036 85.7188 10.6328C85.4583 10.3568 85.0885 10.2188 84.6094 10.2188ZM96.1094 12.9922V17H93.7656V5.625H98.2031C99.0573 5.625 99.8073 5.78125 100.453 6.09375C101.104 6.40625 101.604 6.85156 101.953 7.42969C102.302 8.0026 102.477 8.65625 102.477 9.39062C102.477 10.5052 102.094 11.3854 101.328 12.0312C100.568 12.6719 99.513 12.9922 98.1641 12.9922H96.1094ZM96.1094 11.0938H98.2031C98.8229 11.0938 99.2943 10.9479 99.6172 10.6562C99.9453 10.3646 100.109 9.94792 100.109 9.40625C100.109 8.84896 99.9453 8.39844 99.6172 8.05469C99.2891 7.71094 98.8359 7.53385 98.2578 7.52344H96.1094V11.0938ZM106.148 9.46875C106.747 8.75 107.5 8.39062 108.406 8.39062C110.24 8.39062 111.169 9.45573 111.195 11.5859V17H108.938V11.6484C108.938 11.1641 108.833 10.8073 108.625 10.5781C108.417 10.3438 108.07 10.2266 107.586 10.2266C106.924 10.2266 106.445 10.4818 106.148 10.9922V17H103.891V5H106.148V9.46875ZM112.547 12.6953C112.547 11.8568 112.708 11.1094 113.031 10.4531C113.354 9.79688 113.818 9.28906 114.422 8.92969C115.031 8.57031 115.737 8.39062 116.539 8.39062C117.68 8.39062 118.609 8.73958 119.328 9.4375C120.052 10.1354 120.456 11.0833 120.539 12.2812L120.555 12.8594C120.555 14.1562 120.193 15.1979 119.469 15.9844C118.745 16.7656 117.773 17.1562 116.555 17.1562C115.336 17.1562 114.362 16.7656 113.633 15.9844C112.909 15.2031 112.547 14.1406 112.547 12.7969V12.6953ZM114.805 12.8594C114.805 13.6615 114.956 14.276 115.258 14.7031C115.56 15.125 115.992 15.3359 116.555 15.3359C117.102 15.3359 117.529 15.1276 117.836 14.7109C118.143 14.2891 118.297 13.6172 118.297 12.6953C118.297 11.9089 118.143 11.2995 117.836 10.8672C117.529 10.4349 117.096 10.2188 116.539 10.2188C115.987 10.2188 115.56 10.4349 115.258 10.8672C114.956 11.2943 114.805 11.9583 114.805 12.8594ZM124.648 6.46875V8.54688H126.094V10.2031H124.648V14.4219C124.648 14.7344 124.708 14.9583 124.828 15.0938C124.948 15.2292 125.177 15.2969 125.516 15.2969C125.766 15.2969 125.987 15.2786 126.18 15.2422V16.9531C125.737 17.0885 125.281 17.1562 124.812 17.1562C123.229 17.1562 122.422 16.3568 122.391 14.7578V10.2031H121.156V8.54688H122.391V6.46875H124.648ZM126.766 12.6953C126.766 11.8568 126.927 11.1094 127.25 10.4531C127.573 9.79688 128.036 9.28906 128.641 8.92969C129.25 8.57031 129.956 8.39062 130.758 8.39062C131.898 8.39062 132.828 8.73958 133.547 9.4375C134.271 10.1354 134.674 11.0833 134.758 12.2812L134.773 12.8594C134.773 14.1562 134.411 15.1979 133.688 15.9844C132.964 16.7656 131.992 17.1562 130.773 17.1562C129.555 17.1562 128.581 16.7656 127.852 15.9844C127.128 15.2031 126.766 14.1406 126.766 12.7969V12.6953ZM129.023 12.8594C129.023 13.6615 129.174 14.276 129.477 14.7031C129.779 15.125 130.211 15.3359 130.773 15.3359C131.32 15.3359 131.747 15.1276 132.055 14.7109C132.362 14.2891 132.516 13.6172 132.516 12.6953C132.516 11.9089 132.362 11.2995 132.055 10.8672C131.747 10.4349 131.315 10.2188 130.758 10.2188C130.206 10.2188 129.779 10.4349 129.477 10.8672C129.174 11.2943 129.023 11.9583 129.023 12.8594Z" fill="#BB0101"/>
</svg>
